<svg width="12" height="12" viewBox="0 0 12 12" fill="none" xmlns="http://www.w3.org/2000/svg">
<path fill-rule="evenodd" clip-rule="evenodd" d="M1 0C0.447715 0 0 0.447715 0 1V11C0 11.5523 0.447715 12 1 12H11C11.5523 12 12 11.5523 12 11V1C12 0.447715 11.5523 0 11 0H1ZM10.1241 3.41598C10.3538 3.07134 10.2607 2.60568 9.91605 2.37592C9.57141 2.14616 9.10575 2.23929 8.87599 2.58393L5.32976 7.90328L3.46855 6.41431C3.1451 6.15555 2.67313 6.20799 2.41438 6.53144C2.15562 6.85488 2.20806 7.32685 2.53151 7.58561L4.86116 9.44933C5.29622 9.79738 5.93602 9.69805 6.24507 9.23447L10.1241 3.41598Z" fill="#DFAB62"/>
</svg>
