<svg width="30" height="30" viewBox="0 0 30 30" fill="none" xmlns="http://www.w3.org/2000/svg">
<path d="M23.6719 30H6.32812C5.16498 30 4.21875 29.0538 4.21875 27.8906V2.10938C4.21875 0.94623 5.16498 0 6.32812 0H23.6719C24.835 0 25.7812 0.94623 25.7812 2.10938V27.8906C25.7812 29.0538 24.835 30 23.6719 30ZM6.32812 1.875C6.19887 1.875 6.09375 1.98012 6.09375 2.10938V27.8906C6.09375 28.0199 6.19887 28.125 6.32812 28.125H23.6719C23.8011 28.125 23.9062 28.0199 23.9062 27.8906V2.10938C23.9062 1.98012 23.8011 1.875 23.6719 1.875H6.32812Z" fill="#DFAB62"/>
<path d="M20.1562 24.8438H18.2812C17.7635 24.8438 17.3438 24.424 17.3438 23.9062C17.3438 23.3885 17.7635 22.9688 18.2812 22.9688H20.1562C20.674 22.9688 21.0938 23.3885 21.0938 23.9062C21.0938 24.424 20.674 24.8438 20.1562 24.8438Z" fill="#DFAB62"/>
<path d="M19.6875 12.6562H10.3125C9.79477 12.6562 9.375 12.2365 9.375 11.7188C9.375 11.201 9.79477 10.7812 10.3125 10.7812H19.6875C20.2052 10.7812 20.625 11.201 20.625 11.7188C20.625 12.2365 20.2052 12.6562 19.6875 12.6562Z" fill="#DFAB62"/>
<path d="M19.6875 17.3438H10.3125C9.79477 17.3438 9.375 16.924 9.375 16.4062C9.375 15.8885 9.79477 15.4688 10.3125 15.4688H19.6875C20.2052 15.4688 20.625 15.8885 20.625 16.4062C20.625 16.924 20.2052 17.3438 19.6875 17.3438Z" fill="#DFAB62"/>
</svg>
