<svg width="30" height="30" viewBox="0 0 30 30" fill="none" xmlns="http://www.w3.org/2000/svg">
<path d="M15 30C10.9934 30 7.22648 28.4398 4.39336 25.6066C1.56023 22.7735 0 19.0066 0 15C0 10.9934 1.56029 7.22654 4.39336 4.39336C7.22643 1.56018 10.9934 0 15 0C19.0066 0 22.7735 1.56023 25.6066 4.39336C28.4398 7.22648 30 10.9934 30 15C30 19.0066 28.4397 22.7735 25.6066 25.6066C22.7736 28.4398 19.0066 30 15 30ZM15 1.875C7.76285 1.875 1.875 7.76285 1.875 15C1.875 22.2371 7.76285 28.125 15 28.125C22.2371 28.125 28.125 22.2371 28.125 15C28.125 7.76285 22.2371 1.875 15 1.875Z" fill="#DFAB62"/>
<path d="M16.7386 16.7386C20.625 16.7386 22.4318 14.3864 22.4318 11.5568C22.4318 8.72727 20.625 6.375 16.7386 6.375H10.6364V14.8636H8.8125C8.29473 14.8636 7.875 15.2834 7.875 15.8011C7.875 16.3189 8.29473 16.7386 8.8125 16.7386H10.6364V18.375H8.8125C8.29473 18.375 7.875 18.7947 7.875 19.3125C7.875 19.8303 8.29473 20.25 8.8125 20.25H10.6364V22.7727C10.6364 23.3564 11.1095 23.8295 11.6932 23.8295C12.2768 23.8295 12.75 23.3564 12.75 22.7727V20.25H15.6648C16.1825 20.25 16.6023 19.8303 16.6023 19.3125C16.6023 18.7947 16.1825 18.375 15.6648 18.375H12.75V16.7386H16.7386ZM12.75 14.8636V8.25H16.7386C19.1932 8.25 20.3523 9.64773 20.3523 11.5568C20.3523 13.4659 19.1932 14.8636 16.7386 14.8636H12.75Z" fill="#DFAB62"/>
</svg>
