<svg width="49" height="212" viewBox="0 0 49 212" fill="none" xmlns="http://www.w3.org/2000/svg">
<circle cx="1" cy="113" r="1" fill="white" fill-opacity="0.3"/>
<circle cx="1" cy="1" r="1" fill="white" fill-opacity="0.3"/>
<circle cx="1" cy="169" r="1" fill="white" fill-opacity="0.3"/>
<circle cx="1" cy="57" r="1" fill="white" fill-opacity="0.3"/>
<circle cx="1" cy="141" r="1" fill="white" fill-opacity="0.3"/>
<circle cx="1" cy="29" r="1" fill="white" fill-opacity="0.3"/>
<circle cx="1" cy="197" r="1" fill="white" fill-opacity="0.3"/>
<circle cx="1" cy="85" r="1" fill="white" fill-opacity="0.3"/>
<circle cx="1" cy="127" r="1" fill="white" fill-opacity="0.3"/>
<circle cx="1" cy="15" r="1" fill="white" fill-opacity="0.3"/>
<circle cx="1" cy="183" r="1" fill="white" fill-opacity="0.3"/>
<circle cx="1" cy="71" r="1" fill="white" fill-opacity="0.3"/>
<circle cx="1" cy="155" r="1" fill="white" fill-opacity="0.3"/>
<circle cx="1" cy="43" r="1" fill="white" fill-opacity="0.3"/>
<circle cx="1" cy="211" r="1" fill="white" fill-opacity="0.3"/>
<circle cx="1" cy="99" r="1" fill="white" fill-opacity="0.3"/>
<circle cx="29" cy="113" r="1" fill="white" fill-opacity="0.3"/>
<circle cx="29" cy="1" r="1" fill="white" fill-opacity="0.3"/>
<circle cx="29" cy="169" r="1" fill="white" fill-opacity="0.3"/>
<circle cx="29" cy="57" r="1" fill="white" fill-opacity="0.3"/>
<circle cx="29" cy="141" r="1" fill="white" fill-opacity="0.3"/>
<circle cx="29" cy="29" r="1" fill="white" fill-opacity="0.3"/>
<circle cx="29" cy="197" r="1" fill="white" fill-opacity="0.3"/>
<circle cx="29" cy="85" r="1" fill="white" fill-opacity="0.3"/>
<circle cx="29" cy="127" r="1" fill="white" fill-opacity="0.3"/>
<circle cx="29" cy="15" r="1" fill="white" fill-opacity="0.3"/>
<circle cx="29" cy="183" r="1" fill="white" fill-opacity="0.3"/>
<circle cx="29" cy="71" r="1" fill="white" fill-opacity="0.3"/>
<circle cx="29" cy="155" r="1" fill="white" fill-opacity="0.3"/>
<circle cx="29" cy="43" r="1" fill="white" fill-opacity="0.3"/>
<circle cx="29" cy="211" r="1" fill="white" fill-opacity="0.3"/>
<circle cx="29" cy="99" r="1" fill="white" fill-opacity="0.3"/>
<circle cx="15" cy="113" r="1" fill="white" fill-opacity="0.3"/>
<circle cx="15" cy="1" r="1" fill="white" fill-opacity="0.3"/>
<circle cx="15" cy="169" r="1" fill="white" fill-opacity="0.3"/>
<circle cx="15" cy="57" r="1" fill="white" fill-opacity="0.3"/>
<circle cx="15" cy="141" r="1" fill="white" fill-opacity="0.3"/>
<circle cx="15" cy="29" r="1" fill="white" fill-opacity="0.3"/>
<circle cx="15" cy="197" r="1" fill="white" fill-opacity="0.3"/>
<circle cx="15" cy="85" r="1" fill="white" fill-opacity="0.3"/>
<circle cx="15" cy="127" r="1" fill="white" fill-opacity="0.3"/>
<circle cx="15" cy="15" r="1" fill="white" fill-opacity="0.3"/>
<circle cx="15" cy="183" r="1" fill="white" fill-opacity="0.3"/>
<circle cx="15" cy="71" r="1" fill="white" fill-opacity="0.3"/>
<circle cx="15" cy="155" r="1" fill="white" fill-opacity="0.3"/>
<circle cx="15" cy="43" r="1" fill="white" fill-opacity="0.3"/>
<circle cx="15" cy="211" r="1" fill="white" fill-opacity="0.3"/>
<circle cx="15" cy="99" r="1" fill="white" fill-opacity="0.3"/>
<circle cx="43" cy="113" r="1" fill="white" fill-opacity="0.3"/>
<circle cx="43" cy="1" r="1" fill="white" fill-opacity="0.3"/>
<circle cx="43" cy="169" r="1" fill="white" fill-opacity="0.3"/>
<circle cx="43" cy="57" r="1" fill="white" fill-opacity="0.3"/>
<circle cx="43" cy="141" r="1" fill="white" fill-opacity="0.3"/>
<circle cx="43" cy="29" r="1" fill="white" fill-opacity="0.3"/>
<circle cx="43" cy="197" r="1" fill="white" fill-opacity="0.3"/>
<circle cx="43" cy="85" r="1" fill="white" fill-opacity="0.3"/>
<circle cx="43" cy="127" r="1" fill="white" fill-opacity="0.3"/>
<circle cx="43" cy="15" r="1" fill="white" fill-opacity="0.3"/>
<circle cx="43" cy="183" r="1" fill="white" fill-opacity="0.3"/>
<circle cx="43" cy="71" r="1" fill="white" fill-opacity="0.3"/>
<circle cx="43" cy="155" r="1" fill="white" fill-opacity="0.3"/>
<circle cx="43" cy="43" r="1" fill="white" fill-opacity="0.3"/>
<circle cx="43" cy="211" r="1" fill="white" fill-opacity="0.3"/>
<circle cx="43" cy="99" r="1" fill="white" fill-opacity="0.3"/>
</svg>
