<svg width="30" height="28" viewBox="0 0 30 28" fill="none" xmlns="http://www.w3.org/2000/svg">
<path fill-rule="evenodd" clip-rule="evenodd" d="M0 2C0 0.895431 0.895431 0 2 0H28C29.1046 0 30 0.895431 30 2C30 3.10457 29.1046 4 28 4H2C0.89543 4 0 3.10457 0 2ZM0 14C0 12.8954 0.895431 12 2 12H28C29.1046 12 30 12.8954 30 14C30 15.1046 29.1046 16 28 16H2C0.89543 16 0 15.1046 0 14ZM2 24C0.895431 24 0 24.8954 0 26C0 27.1046 0.89543 28 2 28H28C29.1046 28 30 27.1046 30 26C30 24.8954 29.1046 24 28 24H2Z" fill="#DFAB62"/>
</svg>
