<svg width="30" height="30" viewBox="0 0 30 30" fill="none" xmlns="http://www.w3.org/2000/svg">
<path d="M17.6539 15.0013L29.4515 3.20367C30.1845 2.47132 30.1845 1.28305 29.4515 0.550707C28.7186 -0.182267 27.5315 -0.182267 26.7986 0.550707L15.0009 12.3483L3.20269 0.550707C2.46972 -0.182267 1.2827 -0.182267 0.54973 0.550707C-0.183243 1.28305 -0.183243 2.47132 0.54973 3.20367L12.348 15.0013L0.54973 26.7989C-0.183243 27.5313 -0.183243 28.7195 0.54973 29.4519C0.916217 29.8177 1.39653 30.001 1.87621 30.001C2.3559 30.001 2.83621 29.8177 3.20269 29.4512L15.0009 17.6536L26.7986 29.4512C27.1651 29.8177 27.6454 30.001 28.1251 30.001C28.6047 30.001 29.085 29.8177 29.4515 29.4512C30.1845 28.7189 30.1845 27.5306 29.4515 26.7983L17.6539 15.0013Z" fill="#DFAB62"/>
</svg>
