<svg width="18" height="18" viewBox="0 0 18 18" fill="none" xmlns="http://www.w3.org/2000/svg">
<path d="M17.9616 13.9467C17.9107 13.7933 17.5868 13.5673 16.9901 13.2693C16.8285 13.1754 16.5981 13.0477 16.3001 12.8857C16.0018 12.7238 15.731 12.5745 15.4883 12.4382C15.2451 12.3018 15.0172 12.1697 14.8043 12.0421C14.7703 12.0165 14.6638 11.942 14.4848 11.8182C14.3056 11.6947 14.1546 11.603 14.0307 11.5433C13.9072 11.4838 13.7857 11.4539 13.6664 11.4539C13.4959 11.4539 13.2831 11.5754 13.0275 11.8182C12.7719 12.0612 12.5375 12.3252 12.3245 12.611C12.1115 12.8966 11.8856 13.1606 11.6472 13.4035C11.4085 13.6465 11.2123 13.7679 11.0591 13.7679C10.9822 13.7679 10.8862 13.7465 10.7713 13.7042C10.6564 13.6616 10.569 13.6251 10.509 13.5957C10.4495 13.5656 10.3475 13.5062 10.2025 13.4164C10.0573 13.3269 9.97647 13.2778 9.95946 13.2693C8.79192 12.6214 7.79058 11.8799 6.95528 11.045C6.12025 10.2095 5.37866 9.2083 4.73097 8.04062C4.72246 8.02356 4.67334 7.94256 4.58392 7.79776C4.49437 7.65281 4.43469 7.55068 4.40486 7.49086C4.37504 7.43126 4.33882 7.34386 4.29628 7.22883C4.25374 7.1138 4.23239 7.01798 4.23239 6.94118C4.23239 6.78787 4.35386 6.59175 4.59678 6.35309C4.83964 6.11457 5.10391 5.88863 5.38932 5.67572C5.67494 5.4628 5.93895 5.22835 6.1819 4.97277C6.42477 4.71705 6.5462 4.5041 6.5462 4.33368C6.5462 4.21444 6.51638 4.09287 6.45678 3.96933C6.39714 3.84553 6.30553 3.69445 6.1819 3.51539C6.05823 3.33642 5.98368 3.22999 5.95807 3.19573C5.83036 2.98282 5.69841 2.75486 5.56188 2.51195C5.42536 2.26909 5.27635 1.99837 5.11435 1.70011C4.95248 1.40199 4.82473 1.1718 4.73088 1.00989C4.43276 0.41342 4.20695 0.0894184 4.0535 0.0384629C3.99382 0.0128956 3.90426 0 3.78507 0C3.55483 0 3.25447 0.0425375 2.88377 0.127881C2.51293 0.213091 2.22112 0.302464 2.00803 0.39636C1.58189 0.575242 1.13024 1.0951 0.65292 1.95574C0.218276 2.7567 0.000976562 3.54947 0.000976562 4.33345C0.000976562 4.56338 0.0158871 4.78708 0.0457081 5.00461C0.0755292 5.22191 0.128813 5.46697 0.205604 5.73975C0.282262 6.01243 0.344098 6.215 0.390844 6.34691C0.437635 6.47891 0.524994 6.71538 0.652875 7.05639C0.780577 7.39732 0.857369 7.60602 0.882936 7.68273C1.18119 8.51798 1.53488 9.26364 1.94391 9.91993C2.6169 11.0108 3.53531 12.1381 4.6986 13.3015C5.86193 14.4648 6.98904 15.3831 8.07997 16.0564C8.73617 16.4654 9.4821 16.819 10.3172 17.1175C10.394 17.1429 10.6027 17.2195 10.9435 17.3477C11.2844 17.4755 11.5209 17.5629 11.6529 17.6097C11.785 17.6567 11.9876 17.7185 12.2601 17.7953C12.5331 17.8721 12.778 17.9254 12.9952 17.9554C13.2127 17.9849 13.4364 18 13.6664 18C14.4503 18 15.2432 17.7826 16.0443 17.348C16.9048 16.8709 17.4245 16.4191 17.6035 15.9927C17.6976 15.7798 17.7868 15.4879 17.872 15.1171C17.9575 14.7464 17.9999 14.4461 17.9999 14.2159C18.0002 14.0962 17.9873 14.0069 17.9616 13.9467Z" fill="black"/>
</svg>
