<svg width="212" height="212" viewBox="0 0 212 212" fill="none" xmlns="http://www.w3.org/2000/svg">
<circle cx="99" cy="1" r="1" transform="rotate(90 99 1)" fill="#DFAB62"/>
<circle cx="211" cy="1" r="1" transform="rotate(90 211 1)" fill="#DFAB62"/>
<circle cx="43" cy="1" r="1" transform="rotate(90 43 1)" fill="#DFAB62"/>
<circle cx="155" cy="1" r="1" transform="rotate(90 155 1)" fill="#DFAB62"/>
<circle cx="71" cy="1" r="1" transform="rotate(90 71 1)" fill="#DFAB62"/>
<circle cx="183" cy="1" r="1" transform="rotate(90 183 1)" fill="#DFAB62"/>
<circle cx="15" cy="1" r="1" transform="rotate(90 15 1)" fill="#DFAB62"/>
<circle cx="127" cy="1" r="1" transform="rotate(90 127 1)" fill="#DFAB62"/>
<circle cx="85" cy="1" r="1" transform="rotate(90 85 1)" fill="#DFAB62"/>
<circle cx="197" cy="1" r="1" transform="rotate(90 197 1)" fill="#DFAB62"/>
<circle cx="29" cy="1" r="1" transform="rotate(90 29 1)" fill="#DFAB62"/>
<circle cx="141" cy="1" r="1" transform="rotate(90 141 1)" fill="#DFAB62"/>
<circle cx="57" cy="1" r="1" transform="rotate(90 57 1)" fill="#DFAB62"/>
<circle cx="169" cy="1" r="1" transform="rotate(90 169 1)" fill="#DFAB62"/>
<circle cx="1" cy="1" r="1" transform="rotate(90 1 1)" fill="#DFAB62"/>
<circle cx="113" cy="1" r="1" transform="rotate(90 113 1)" fill="#DFAB62"/>
<circle cx="99" cy="113" r="1" transform="rotate(90 99 113)" fill="#DFAB62"/>
<circle cx="211" cy="113" r="1" transform="rotate(90 211 113)" fill="#DFAB62"/>
<circle cx="43" cy="113" r="1" transform="rotate(90 43 113)" fill="#DFAB62"/>
<circle cx="155" cy="113" r="1" transform="rotate(90 155 113)" fill="#DFAB62"/>
<circle cx="71" cy="113" r="1" transform="rotate(90 71 113)" fill="#DFAB62"/>
<circle cx="183" cy="113" r="1" transform="rotate(90 183 113)" fill="#DFAB62"/>
<circle cx="15" cy="113" r="1" transform="rotate(90 15 113)" fill="#DFAB62"/>
<circle cx="127" cy="113" r="1" transform="rotate(90 127 113)" fill="#DFAB62"/>
<circle cx="85" cy="113" r="1" transform="rotate(90 85 113)" fill="#DFAB62"/>
<circle cx="197" cy="113" r="1" transform="rotate(90 197 113)" fill="#DFAB62"/>
<circle cx="29" cy="113" r="1" transform="rotate(90 29 113)" fill="#DFAB62"/>
<circle cx="141" cy="113" r="1" transform="rotate(90 141 113)" fill="#DFAB62"/>
<circle cx="57" cy="113" r="1" transform="rotate(90 57 113)" fill="#DFAB62"/>
<circle cx="169" cy="113" r="1" transform="rotate(90 169 113)" fill="#DFAB62"/>
<circle cx="1" cy="113" r="1" transform="rotate(90 1 113)" fill="#DFAB62"/>
<circle cx="113" cy="113" r="1" transform="rotate(90 113 113)" fill="#DFAB62"/>
<circle cx="99" cy="57" r="1" transform="rotate(90 99 57)" fill="#DFAB62"/>
<circle cx="211" cy="57" r="1" transform="rotate(90 211 57)" fill="#DFAB62"/>
<circle cx="43" cy="57" r="1" transform="rotate(90 43 57)" fill="#DFAB62"/>
<circle cx="155" cy="57" r="1" transform="rotate(90 155 57)" fill="#DFAB62"/>
<circle cx="71" cy="57" r="1" transform="rotate(90 71 57)" fill="#DFAB62"/>
<circle cx="183" cy="57" r="1" transform="rotate(90 183 57)" fill="#DFAB62"/>
<circle cx="15" cy="57" r="1" transform="rotate(90 15 57)" fill="#DFAB62"/>
<circle cx="127" cy="57" r="1" transform="rotate(90 127 57)" fill="#DFAB62"/>
<circle cx="85" cy="57" r="1" transform="rotate(90 85 57)" fill="#DFAB62"/>
<circle cx="197" cy="57" r="1" transform="rotate(90 197 57)" fill="#DFAB62"/>
<circle cx="29" cy="57" r="1" transform="rotate(90 29 57)" fill="#DFAB62"/>
<circle cx="141" cy="57" r="1" transform="rotate(90 141 57)" fill="#DFAB62"/>
<circle cx="57" cy="57" r="1" transform="rotate(90 57 57)" fill="#DFAB62"/>
<circle cx="169" cy="57" r="1" transform="rotate(90 169 57)" fill="#DFAB62"/>
<circle cx="1" cy="57" r="1" transform="rotate(90 1 57)" fill="#DFAB62"/>
<circle cx="113" cy="57" r="1" transform="rotate(90 113 57)" fill="#DFAB62"/>
<circle cx="99" cy="169" r="1" transform="rotate(90 99 169)" fill="#DFAB62"/>
<circle cx="211" cy="169" r="1" transform="rotate(90 211 169)" fill="#DFAB62"/>
<circle cx="43" cy="169" r="1" transform="rotate(90 43 169)" fill="#DFAB62"/>
<circle cx="155" cy="169" r="1" transform="rotate(90 155 169)" fill="#DFAB62"/>
<circle cx="71" cy="169" r="1" transform="rotate(90 71 169)" fill="#DFAB62"/>
<circle cx="183" cy="169" r="1" transform="rotate(90 183 169)" fill="#DFAB62"/>
<circle cx="15" cy="169" r="1" transform="rotate(90 15 169)" fill="#DFAB62"/>
<circle cx="127" cy="169" r="1" transform="rotate(90 127 169)" fill="#DFAB62"/>
<circle cx="85" cy="169" r="1" transform="rotate(90 85 169)" fill="#DFAB62"/>
<circle cx="197" cy="169" r="1" transform="rotate(90 197 169)" fill="#DFAB62"/>
<circle cx="29" cy="169" r="1" transform="rotate(90 29 169)" fill="#DFAB62"/>
<circle cx="141" cy="169" r="1" transform="rotate(90 141 169)" fill="#DFAB62"/>
<circle cx="57" cy="169" r="1" transform="rotate(90 57 169)" fill="#DFAB62"/>
<circle cx="169" cy="169" r="1" transform="rotate(90 169 169)" fill="#DFAB62"/>
<circle cx="1" cy="169" r="1" transform="rotate(90 1 169)" fill="#DFAB62"/>
<circle cx="113" cy="169" r="1" transform="rotate(90 113 169)" fill="#DFAB62"/>
<circle cx="99" cy="29" r="1" transform="rotate(90 99 29)" fill="#DFAB62"/>
<circle cx="211" cy="29" r="1" transform="rotate(90 211 29)" fill="#DFAB62"/>
<circle cx="43" cy="29" r="1" transform="rotate(90 43 29)" fill="#DFAB62"/>
<circle cx="155" cy="29" r="1" transform="rotate(90 155 29)" fill="#DFAB62"/>
<circle cx="71" cy="29" r="1" transform="rotate(90 71 29)" fill="#DFAB62"/>
<circle cx="183" cy="29" r="1" transform="rotate(90 183 29)" fill="#DFAB62"/>
<circle cx="15" cy="29" r="1" transform="rotate(90 15 29)" fill="#DFAB62"/>
<circle cx="127" cy="29" r="1" transform="rotate(90 127 29)" fill="#DFAB62"/>
<circle cx="85" cy="29" r="1" transform="rotate(90 85 29)" fill="#DFAB62"/>
<circle cx="197" cy="29" r="1" transform="rotate(90 197 29)" fill="#DFAB62"/>
<circle cx="29" cy="29" r="1" transform="rotate(90 29 29)" fill="#DFAB62"/>
<circle cx="141" cy="29" r="1" transform="rotate(90 141 29)" fill="#DFAB62"/>
<circle cx="57" cy="29" r="1" transform="rotate(90 57 29)" fill="#DFAB62"/>
<circle cx="169" cy="29" r="1" transform="rotate(90 169 29)" fill="#DFAB62"/>
<circle cx="1" cy="29" r="1" transform="rotate(90 1 29)" fill="#DFAB62"/>
<circle cx="113" cy="29" r="1" transform="rotate(90 113 29)" fill="#DFAB62"/>
<circle cx="99" cy="141" r="1" transform="rotate(90 99 141)" fill="#DFAB62"/>
<circle cx="211" cy="141" r="1" transform="rotate(90 211 141)" fill="#DFAB62"/>
<circle cx="43" cy="141" r="1" transform="rotate(90 43 141)" fill="#DFAB62"/>
<circle cx="155" cy="141" r="1" transform="rotate(90 155 141)" fill="#DFAB62"/>
<circle cx="71" cy="141" r="1" transform="rotate(90 71 141)" fill="#DFAB62"/>
<circle cx="183" cy="141" r="1" transform="rotate(90 183 141)" fill="#DFAB62"/>
<circle cx="15" cy="141" r="1" transform="rotate(90 15 141)" fill="#DFAB62"/>
<circle cx="127" cy="141" r="1" transform="rotate(90 127 141)" fill="#DFAB62"/>
<circle cx="85" cy="141" r="1" transform="rotate(90 85 141)" fill="#DFAB62"/>
<circle cx="197" cy="141" r="1" transform="rotate(90 197 141)" fill="#DFAB62"/>
<circle cx="29" cy="141" r="1" transform="rotate(90 29 141)" fill="#DFAB62"/>
<circle cx="141" cy="141" r="1" transform="rotate(90 141 141)" fill="#DFAB62"/>
<circle cx="57" cy="141" r="1" transform="rotate(90 57 141)" fill="#DFAB62"/>
<circle cx="169" cy="141" r="1" transform="rotate(90 169 141)" fill="#DFAB62"/>
<circle cx="1" cy="141" r="1" transform="rotate(90 1 141)" fill="#DFAB62"/>
<circle cx="113" cy="141" r="1" transform="rotate(90 113 141)" fill="#DFAB62"/>
<circle cx="99" cy="85" r="1" transform="rotate(90 99 85)" fill="#DFAB62"/>
<circle cx="211" cy="85" r="1" transform="rotate(90 211 85)" fill="#DFAB62"/>
<circle cx="43" cy="85" r="1" transform="rotate(90 43 85)" fill="#DFAB62"/>
<circle cx="155" cy="85" r="1" transform="rotate(90 155 85)" fill="#DFAB62"/>
<circle cx="71" cy="85" r="1" transform="rotate(90 71 85)" fill="#DFAB62"/>
<circle cx="183" cy="85" r="1" transform="rotate(90 183 85)" fill="#DFAB62"/>
<circle cx="15" cy="85" r="1" transform="rotate(90 15 85)" fill="#DFAB62"/>
<circle cx="127" cy="85" r="1" transform="rotate(90 127 85)" fill="#DFAB62"/>
<circle cx="85" cy="85" r="1" transform="rotate(90 85 85)" fill="#DFAB62"/>
<circle cx="197" cy="85" r="1" transform="rotate(90 197 85)" fill="#DFAB62"/>
<circle cx="29" cy="85" r="1" transform="rotate(90 29 85)" fill="#DFAB62"/>
<circle cx="141" cy="85" r="1" transform="rotate(90 141 85)" fill="#DFAB62"/>
<circle cx="57" cy="85" r="1" transform="rotate(90 57 85)" fill="#DFAB62"/>
<circle cx="169" cy="85" r="1" transform="rotate(90 169 85)" fill="#DFAB62"/>
<circle cx="1" cy="85" r="1" transform="rotate(90 1 85)" fill="#DFAB62"/>
<circle cx="113" cy="85" r="1" transform="rotate(90 113 85)" fill="#DFAB62"/>
<circle cx="99" cy="197" r="1" transform="rotate(90 99 197)" fill="#DFAB62"/>
<circle cx="211" cy="197" r="1" transform="rotate(90 211 197)" fill="#DFAB62"/>
<circle cx="43" cy="197" r="1" transform="rotate(90 43 197)" fill="#DFAB62"/>
<circle cx="155" cy="197" r="1" transform="rotate(90 155 197)" fill="#DFAB62"/>
<circle cx="71" cy="197" r="1" transform="rotate(90 71 197)" fill="#DFAB62"/>
<circle cx="183" cy="197" r="1" transform="rotate(90 183 197)" fill="#DFAB62"/>
<circle cx="15" cy="197" r="1" transform="rotate(90 15 197)" fill="#DFAB62"/>
<circle cx="127" cy="197" r="1" transform="rotate(90 127 197)" fill="#DFAB62"/>
<circle cx="85" cy="197" r="1" transform="rotate(90 85 197)" fill="#DFAB62"/>
<circle cx="197" cy="197" r="1" transform="rotate(90 197 197)" fill="#DFAB62"/>
<circle cx="29" cy="197" r="1" transform="rotate(90 29 197)" fill="#DFAB62"/>
<circle cx="141" cy="197" r="1" transform="rotate(90 141 197)" fill="#DFAB62"/>
<circle cx="57" cy="197" r="1" transform="rotate(90 57 197)" fill="#DFAB62"/>
<circle cx="169" cy="197" r="1" transform="rotate(90 169 197)" fill="#DFAB62"/>
<circle cx="1" cy="197" r="1" transform="rotate(90 1 197)" fill="#DFAB62"/>
<circle cx="113" cy="197" r="1" transform="rotate(90 113 197)" fill="#DFAB62"/>
<circle cx="99" cy="15" r="1" transform="rotate(90 99 15)" fill="#DFAB62"/>
<circle cx="211" cy="15" r="1" transform="rotate(90 211 15)" fill="#DFAB62"/>
<circle cx="43" cy="15" r="1" transform="rotate(90 43 15)" fill="#DFAB62"/>
<circle cx="155" cy="15" r="1" transform="rotate(90 155 15)" fill="#DFAB62"/>
<circle cx="71" cy="15" r="1" transform="rotate(90 71 15)" fill="#DFAB62"/>
<circle cx="183" cy="15" r="1" transform="rotate(90 183 15)" fill="#DFAB62"/>
<circle cx="15" cy="15" r="1" transform="rotate(90 15 15)" fill="#DFAB62"/>
<circle cx="127" cy="15" r="1" transform="rotate(90 127 15)" fill="#DFAB62"/>
<circle cx="85" cy="15" r="1" transform="rotate(90 85 15)" fill="#DFAB62"/>
<circle cx="197" cy="15" r="1" transform="rotate(90 197 15)" fill="#DFAB62"/>
<circle cx="29" cy="15" r="1" transform="rotate(90 29 15)" fill="#DFAB62"/>
<circle cx="141" cy="15" r="1" transform="rotate(90 141 15)" fill="#DFAB62"/>
<circle cx="57" cy="15" r="1" transform="rotate(90 57 15)" fill="#DFAB62"/>
<circle cx="169" cy="15" r="1" transform="rotate(90 169 15)" fill="#DFAB62"/>
<circle cx="1" cy="15" r="1" transform="rotate(90 1 15)" fill="#DFAB62"/>
<circle cx="113" cy="15" r="1" transform="rotate(90 113 15)" fill="#DFAB62"/>
<circle cx="99" cy="127" r="1" transform="rotate(90 99 127)" fill="#DFAB62"/>
<circle cx="211" cy="127" r="1" transform="rotate(90 211 127)" fill="#DFAB62"/>
<circle cx="43" cy="127" r="1" transform="rotate(90 43 127)" fill="#DFAB62"/>
<circle cx="155" cy="127" r="1" transform="rotate(90 155 127)" fill="#DFAB62"/>
<circle cx="71" cy="127" r="1" transform="rotate(90 71 127)" fill="#DFAB62"/>
<circle cx="183" cy="127" r="1" transform="rotate(90 183 127)" fill="#DFAB62"/>
<circle cx="15" cy="127" r="1" transform="rotate(90 15 127)" fill="#DFAB62"/>
<circle cx="127" cy="127" r="1" transform="rotate(90 127 127)" fill="#DFAB62"/>
<circle cx="85" cy="127" r="1" transform="rotate(90 85 127)" fill="#DFAB62"/>
<circle cx="197" cy="127" r="1" transform="rotate(90 197 127)" fill="#DFAB62"/>
<circle cx="29" cy="127" r="1" transform="rotate(90 29 127)" fill="#DFAB62"/>
<circle cx="141" cy="127" r="1" transform="rotate(90 141 127)" fill="#DFAB62"/>
<circle cx="57" cy="127" r="1" transform="rotate(90 57 127)" fill="#DFAB62"/>
<circle cx="169" cy="127" r="1" transform="rotate(90 169 127)" fill="#DFAB62"/>
<circle cx="1" cy="127" r="1" transform="rotate(90 1 127)" fill="#DFAB62"/>
<circle cx="113" cy="127" r="1" transform="rotate(90 113 127)" fill="#DFAB62"/>
<circle cx="99" cy="71" r="1" transform="rotate(90 99 71)" fill="#DFAB62"/>
<circle cx="211" cy="71" r="1" transform="rotate(90 211 71)" fill="#DFAB62"/>
<circle cx="43" cy="71" r="1" transform="rotate(90 43 71)" fill="#DFAB62"/>
<circle cx="155" cy="71" r="1" transform="rotate(90 155 71)" fill="#DFAB62"/>
<circle cx="71" cy="71" r="1" transform="rotate(90 71 71)" fill="#DFAB62"/>
<circle cx="183" cy="71" r="1" transform="rotate(90 183 71)" fill="#DFAB62"/>
<circle cx="15" cy="71" r="1" transform="rotate(90 15 71)" fill="#DFAB62"/>
<circle cx="127" cy="71" r="1" transform="rotate(90 127 71)" fill="#DFAB62"/>
<circle cx="85" cy="71" r="1" transform="rotate(90 85 71)" fill="#DFAB62"/>
<circle cx="197" cy="71" r="1" transform="rotate(90 197 71)" fill="#DFAB62"/>
<circle cx="29" cy="71" r="1" transform="rotate(90 29 71)" fill="#DFAB62"/>
<circle cx="141" cy="71" r="1" transform="rotate(90 141 71)" fill="#DFAB62"/>
<circle cx="57" cy="71" r="1" transform="rotate(90 57 71)" fill="#DFAB62"/>
<circle cx="169" cy="71" r="1" transform="rotate(90 169 71)" fill="#DFAB62"/>
<circle cx="1" cy="71" r="1" transform="rotate(90 1 71)" fill="#DFAB62"/>
<circle cx="113" cy="71" r="1" transform="rotate(90 113 71)" fill="#DFAB62"/>
<circle cx="99" cy="183" r="1" transform="rotate(90 99 183)" fill="#DFAB62"/>
<circle cx="211" cy="183" r="1" transform="rotate(90 211 183)" fill="#DFAB62"/>
<circle cx="43" cy="183" r="1" transform="rotate(90 43 183)" fill="#DFAB62"/>
<circle cx="155" cy="183" r="1" transform="rotate(90 155 183)" fill="#DFAB62"/>
<circle cx="71" cy="183" r="1" transform="rotate(90 71 183)" fill="#DFAB62"/>
<circle cx="183" cy="183" r="1" transform="rotate(90 183 183)" fill="#DFAB62"/>
<circle cx="15" cy="183" r="1" transform="rotate(90 15 183)" fill="#DFAB62"/>
<circle cx="127" cy="183" r="1" transform="rotate(90 127 183)" fill="#DFAB62"/>
<circle cx="85" cy="183" r="1" transform="rotate(90 85 183)" fill="#DFAB62"/>
<circle cx="197" cy="183" r="1" transform="rotate(90 197 183)" fill="#DFAB62"/>
<circle cx="29" cy="183" r="1" transform="rotate(90 29 183)" fill="#DFAB62"/>
<circle cx="141" cy="183" r="1" transform="rotate(90 141 183)" fill="#DFAB62"/>
<circle cx="57" cy="183" r="1" transform="rotate(90 57 183)" fill="#DFAB62"/>
<circle cx="169" cy="183" r="1" transform="rotate(90 169 183)" fill="#DFAB62"/>
<circle cx="1" cy="183" r="1" transform="rotate(90 1 183)" fill="#DFAB62"/>
<circle cx="113" cy="183" r="1" transform="rotate(90 113 183)" fill="#DFAB62"/>
<circle cx="99" cy="43" r="1" transform="rotate(90 99 43)" fill="#DFAB62"/>
<circle cx="211" cy="43" r="1" transform="rotate(90 211 43)" fill="#DFAB62"/>
<circle cx="43" cy="43" r="1" transform="rotate(90 43 43)" fill="#DFAB62"/>
<circle cx="155" cy="43" r="1" transform="rotate(90 155 43)" fill="#DFAB62"/>
<circle cx="71" cy="43" r="1" transform="rotate(90 71 43)" fill="#DFAB62"/>
<circle cx="183" cy="43" r="1" transform="rotate(90 183 43)" fill="#DFAB62"/>
<circle cx="15" cy="43" r="1" transform="rotate(90 15 43)" fill="#DFAB62"/>
<circle cx="127" cy="43" r="1" transform="rotate(90 127 43)" fill="#DFAB62"/>
<circle cx="85" cy="43" r="1" transform="rotate(90 85 43)" fill="#DFAB62"/>
<circle cx="197" cy="43" r="1" transform="rotate(90 197 43)" fill="#DFAB62"/>
<circle cx="29" cy="43" r="1" transform="rotate(90 29 43)" fill="#DFAB62"/>
<circle cx="141" cy="43" r="1" transform="rotate(90 141 43)" fill="#DFAB62"/>
<circle cx="57" cy="43" r="1" transform="rotate(90 57 43)" fill="#DFAB62"/>
<circle cx="169" cy="43" r="1" transform="rotate(90 169 43)" fill="#DFAB62"/>
<circle cx="1" cy="43" r="1" transform="rotate(90 1 43)" fill="#DFAB62"/>
<circle cx="113" cy="43" r="1" transform="rotate(90 113 43)" fill="#DFAB62"/>
<circle cx="99" cy="155" r="1" transform="rotate(90 99 155)" fill="#DFAB62"/>
<circle cx="211" cy="155" r="1" transform="rotate(90 211 155)" fill="#DFAB62"/>
<circle cx="43" cy="155" r="1" transform="rotate(90 43 155)" fill="#DFAB62"/>
<circle cx="155" cy="155" r="1" transform="rotate(90 155 155)" fill="#DFAB62"/>
<circle cx="71" cy="155" r="1" transform="rotate(90 71 155)" fill="#DFAB62"/>
<circle cx="183" cy="155" r="1" transform="rotate(90 183 155)" fill="#DFAB62"/>
<circle cx="15" cy="155" r="1" transform="rotate(90 15 155)" fill="#DFAB62"/>
<circle cx="127" cy="155" r="1" transform="rotate(90 127 155)" fill="#DFAB62"/>
<circle cx="85" cy="155" r="1" transform="rotate(90 85 155)" fill="#DFAB62"/>
<circle cx="197" cy="155" r="1" transform="rotate(90 197 155)" fill="#DFAB62"/>
<circle cx="29" cy="155" r="1" transform="rotate(90 29 155)" fill="#DFAB62"/>
<circle cx="141" cy="155" r="1" transform="rotate(90 141 155)" fill="#DFAB62"/>
<circle cx="57" cy="155" r="1" transform="rotate(90 57 155)" fill="#DFAB62"/>
<circle cx="169" cy="155" r="1" transform="rotate(90 169 155)" fill="#DFAB62"/>
<circle cx="1" cy="155" r="1" transform="rotate(90 1 155)" fill="#DFAB62"/>
<circle cx="113" cy="155" r="1" transform="rotate(90 113 155)" fill="#DFAB62"/>
<circle cx="99" cy="99" r="1" transform="rotate(90 99 99)" fill="#DFAB62"/>
<circle cx="211" cy="99" r="1" transform="rotate(90 211 99)" fill="#DFAB62"/>
<circle cx="43" cy="99" r="1" transform="rotate(90 43 99)" fill="#DFAB62"/>
<circle cx="155" cy="99" r="1" transform="rotate(90 155 99)" fill="#DFAB62"/>
<circle cx="71" cy="99" r="1" transform="rotate(90 71 99)" fill="#DFAB62"/>
<circle cx="183" cy="99" r="1" transform="rotate(90 183 99)" fill="#DFAB62"/>
<circle cx="15" cy="99" r="1" transform="rotate(90 15 99)" fill="#DFAB62"/>
<circle cx="127" cy="99" r="1" transform="rotate(90 127 99)" fill="#DFAB62"/>
<circle cx="85" cy="99" r="1" transform="rotate(90 85 99)" fill="#DFAB62"/>
<circle cx="197" cy="99" r="1" transform="rotate(90 197 99)" fill="#DFAB62"/>
<circle cx="29" cy="99" r="1" transform="rotate(90 29 99)" fill="#DFAB62"/>
<circle cx="141" cy="99" r="1" transform="rotate(90 141 99)" fill="#DFAB62"/>
<circle cx="57" cy="99" r="1" transform="rotate(90 57 99)" fill="#DFAB62"/>
<circle cx="169" cy="99" r="1" transform="rotate(90 169 99)" fill="#DFAB62"/>
<circle cx="1" cy="99" r="1" transform="rotate(90 1 99)" fill="#DFAB62"/>
<circle cx="113" cy="99" r="1" transform="rotate(90 113 99)" fill="#DFAB62"/>
<circle cx="99" cy="211" r="1" transform="rotate(90 99 211)" fill="#DFAB62"/>
<circle cx="211" cy="211" r="1" transform="rotate(90 211 211)" fill="#DFAB62"/>
<circle cx="43" cy="211" r="1" transform="rotate(90 43 211)" fill="#DFAB62"/>
<circle cx="155" cy="211" r="1" transform="rotate(90 155 211)" fill="#DFAB62"/>
<circle cx="71" cy="211" r="1" transform="rotate(90 71 211)" fill="#DFAB62"/>
<circle cx="183" cy="211" r="1" transform="rotate(90 183 211)" fill="#DFAB62"/>
<circle cx="15" cy="211" r="1" transform="rotate(90 15 211)" fill="#DFAB62"/>
<circle cx="127" cy="211" r="1" transform="rotate(90 127 211)" fill="#DFAB62"/>
<circle cx="85" cy="211" r="1" transform="rotate(90 85 211)" fill="#DFAB62"/>
<circle cx="197" cy="211" r="1" transform="rotate(90 197 211)" fill="#DFAB62"/>
<circle cx="29" cy="211" r="1" transform="rotate(90 29 211)" fill="#DFAB62"/>
<circle cx="141" cy="211" r="1" transform="rotate(90 141 211)" fill="#DFAB62"/>
<circle cx="57" cy="211" r="1" transform="rotate(90 57 211)" fill="#DFAB62"/>
<circle cx="169" cy="211" r="1" transform="rotate(90 169 211)" fill="#DFAB62"/>
<circle cx="1" cy="211" r="1" transform="rotate(90 1 211)" fill="#DFAB62"/>
<circle cx="113" cy="211" r="1" transform="rotate(90 113 211)" fill="#DFAB62"/>
</svg>
