<svg width="12" height="11" fill="none" xmlns="http://www.w3.org/2000/svg"><path d="M3.732.033c-.585.027-.985.12-1.335.256a2.69 2.69 0 00-.974.634 2.69 2.69 0 00-.634.974c-.136.35-.23.75-.256 1.335C.506 3.82.5 4.006.5 5.5c0 1.494.006 1.68.033 2.268.026.585.12.985.256 1.334.14.362.328.67.634.975.306.306.612.494.974.634.35.136.75.23 1.335.256.587.027.774.033 2.268.033 1.494 0 1.681-.006 2.268-.033.585-.027.985-.12 1.335-.256.362-.14.668-.329.974-.634.306-.306.494-.613.635-.975.135-.35.229-.749.255-1.334.027-.587.033-.774.033-2.268 0-1.494-.006-1.68-.033-2.268-.026-.585-.12-.985-.255-1.335a2.7 2.7 0 00-.635-.974A2.692 2.692 0 009.603.29c-.35-.136-.75-.23-1.335-.256C7.68.007 7.494 0 6 0 4.506 0 4.32.007 3.732.033zm.046 9.944c-.536-.025-.828-.114-1.022-.19a1.7 1.7 0 01-.632-.411 1.695 1.695 0 01-.412-.632c-.075-.194-.165-.485-.189-1.021-.027-.58-.032-.754-.032-2.223 0-1.469.005-1.642.032-2.223.024-.536.114-.827.19-1.02.099-.258.218-.44.411-.633.192-.192.376-.312.632-.412.194-.075.486-.164 1.022-.19.58-.025.753-.03 2.222-.03 1.469 0 1.643.005 2.223.03.536.026.827.115 1.021.19.257.1.44.22.632.412a1.7 1.7 0 01.412.632c.075.194.165.485.189 1.021.027.58.032.754.032 2.223 0 1.469-.005 1.642-.032 2.223-.024.536-.114.827-.19 1.02a1.7 1.7 0 01-.41.633 1.706 1.706 0 01-.633.412c-.194.075-.485.164-1.021.19-.58.026-.754.03-2.223.03-1.469 0-1.643-.004-2.222-.03zm4.498-7.413a.66.66 0 101.32 0 .66.66 0 00-1.32 0zM3.176 5.5a2.825 2.825 0 105.647 0 2.825 2.825 0 00-5.649.001zm.99 0a1.833 1.833 0 113.667 0 1.833 1.833 0 01-3.666 0z" fill="#DFAB62"/></svg>