<svg width="30" height="17" fill="none" xmlns="http://www.w3.org/2000/svg"><path d="M16.452 16c.761 0 1.073-.464 1.064-1.046-.039-2.191.893-3.37 2.574-1.833 1.86 1.7 2.245 2.878 4.503 2.878h4c1.01 0 1.407-.297 1.407-.763 0-.986-1.776-2.727-3.28-4.004-2.108-1.789-2.207-1.831-.392-3.984 2.251-2.673 5.196-6.099 2.591-6.099h-4.976c-.965 0-1.035.498-1.379 1.238-1.243 2.682-3.607 6.157-4.504 5.625-.939-.554-.509-2.75-.438-6.012.019-.862.014-1.453-1.426-1.76a10.994 10.994 0 00-2.261-.233c-2.841 0-4.801 1.089-3.687 1.278 1.963.335 1.775 4.22 1.317 5.898-.797 2.92-3.795-2.314-5.044-4.92-.3-.627-.393-1.114-1.468-1.114H.984C.37 1.15 0 1.332 0 1.74c0 .688 3.7 7.68 7.233 11.166 3.445 3.4 6.85 3.095 9.22 3.095z" fill="#DFAB62"/></svg>