<svg width="30" height="30" fill="none" xmlns="http://www.w3.org/2000/svg"><path d="M23.672 30H6.328a2.112 2.112 0 01-2.11-2.11V2.11A2.113 2.113 0 016.329 0h17.344c1.163 0 2.11.946 2.11 2.11v25.78c0 1.164-.947 2.11-2.11 2.11zM6.328 1.875a.235.235 0 00-.234.234v25.782c0 .129.105.234.234.234h17.344c.13 0 .234-.105.234-.234V2.109a.235.235 0 00-.234-.234H6.328z" fill="#DFAB62"/><path d="M20.156 24.844h-1.875a.938.938 0 010-1.875h1.875a.938.938 0 110 1.875zm-.468-12.188h-9.375a.937.937 0 110-1.875h9.374a.938.938 0 010 1.875zm0 4.688h-9.375a.938.938 0 010-1.875h9.374a.938.938 0 010 1.875z" fill="#DFAB62"/></svg>