<svg width="30" height="30" fill="none" xmlns="http://www.w3.org/2000/svg"><path d="M15 30c-4.007 0-7.774-1.56-10.607-4.393A14.902 14.902 0 010 15c0-4.007 1.56-7.773 4.393-10.607A14.902 14.902 0 0115 0c4.007 0 7.773 1.56 10.607 4.393A14.902 14.902 0 0130 15c0 4.007-1.56 7.773-4.393 10.607A14.901 14.901 0 0115 30zm0-28.125C7.763 1.875 1.875 7.763 1.875 15S7.763 28.125 15 28.125 28.125 22.237 28.125 15 22.237 1.875 15 1.875z" fill="#DFAB62"/><path d="M16.739 16.739c3.886 0 5.693-2.353 5.693-5.182 0-2.83-1.807-5.182-5.693-5.182h-6.103v8.489H8.813a.938.938 0 000 1.875h1.823v1.636H8.813a.937.937 0 100 1.875h1.823v2.523a1.057 1.057 0 102.114 0V20.25h2.915a.938.938 0 000-1.875H12.75v-1.636h3.989zm-3.989-1.875V8.25h3.989c2.454 0 3.613 1.398 3.613 3.307s-1.159 3.307-3.613 3.307H12.75z" fill="#DFAB62"/></svg>