<svg width="18" height="18" fill="none" xmlns="http://www.w3.org/2000/svg"><path d="M17.962 13.947c-.051-.154-.375-.38-.972-.678a30.105 30.105 0 00-.69-.383 61.115 61.115 0 01-.812-.448 27.492 27.492 0 01-.684-.396c-.034-.025-.14-.1-.32-.224a3.58 3.58 0 00-.453-.275.836.836 0 00-.365-.09c-.17 0-.383.122-.639.365a6.22 6.22 0 00-.702.793c-.213.286-.44.55-.678.792-.239.243-.435.365-.588.365a.87.87 0 01-.288-.064 2.992 2.992 0 01-.262-.108c-.06-.03-.162-.09-.306-.18a7.738 7.738 0 00-.244-.147c-1.167-.648-2.168-1.39-3.004-2.224-.835-.835-1.576-1.837-2.224-3.004a7.408 7.408 0 00-.147-.243 4.617 4.617 0 01-.18-.307 2.772 2.772 0 01-.108-.262.865.865 0 01-.064-.288c0-.153.122-.35.365-.588s.507-.464.792-.677c.286-.213.55-.448.793-.703.243-.256.364-.469.364-.64 0-.119-.03-.24-.09-.364a3.553 3.553 0 00-.274-.454 16.824 16.824 0 00-.224-.32 24.06 24.06 0 01-.396-.683 64.495 64.495 0 01-.448-.812 30.41 30.41 0 00-.383-.69C4.433.413 4.207.09 4.053.038A.716.716 0 003.785 0c-.23 0-.53.043-.901.128s-.663.174-.876.268c-.426.18-.878.7-1.355 1.56C.218 2.756 0 3.549 0 4.333c0 .23.015.454.045.672.03.217.083.462.16.735.076.272.138.475.185.607.047.132.134.368.262.71.128.34.204.549.23.626.298.835.652 1.58 1.06 2.237.674 1.09 1.592 2.218 2.756 3.382 1.163 1.163 2.29 2.081 3.381 2.754.656.41 1.402.763 2.237 1.061.077.026.286.102.627.23.34.128.577.216.709.263.132.047.335.108.607.185.273.077.518.13.735.16.218.03.441.045.671.045.784 0 1.577-.217 2.378-.652.86-.477 1.38-.929 1.56-1.355.094-.213.183-.505.268-.876.085-.37.128-.67.128-.901a.712.712 0 00-.038-.27z" fill="#000"/></svg>