<svg width="12" height="11" viewBox="0 0 12 11" fill="none" xmlns="http://www.w3.org/2000/svg">
<path d="M3.73237 0.0333625C3.14708 0.0599393 2.74728 0.152675 2.39723 0.288953C2.03532 0.429188 1.72882 0.617488 1.42289 0.923405C1.11695 1.22932 0.92921 1.5358 0.788968 1.89714C0.652684 2.24716 0.559377 2.64694 0.532799 3.2322C0.50622 3.81915 0.5 4.00632 0.5 5.50028C0.5 6.99368 0.50622 7.18085 0.532799 7.7678C0.559377 8.35306 0.652684 8.75284 0.788968 9.1023C0.92921 9.4642 1.11695 9.77124 1.42289 10.0766C1.72882 10.3825 2.03532 10.5708 2.39723 10.711C2.74728 10.8473 3.14708 10.9401 3.73237 10.9666C4.31935 10.9938 4.50596 11 6 11C7.49404 11 7.68122 10.9938 8.26763 10.9666C8.85292 10.9401 9.25329 10.8473 9.60333 10.711C9.96468 10.5708 10.2712 10.3825 10.5771 10.0766C10.883 9.77124 11.0708 9.4642 11.2116 9.1023C11.3473 8.75284 11.4406 8.35306 11.4672 7.7678C11.4938 7.18085 11.5 6.99368 11.5 5.50028C11.5 4.00632 11.4938 3.81915 11.4672 3.2322C11.4406 2.64694 11.3473 2.24716 11.2116 1.89714C11.0708 1.5358 10.883 1.22932 10.5771 0.923405C10.2712 0.617488 9.96468 0.429188 9.60333 0.288953C9.25329 0.152675 8.85292 0.0599393 8.26763 0.0333625C7.68122 0.00678559 7.49404 0 6 0C4.50596 0 4.31935 0.00678559 3.73237 0.0333625ZM3.77761 9.97707C3.24152 9.95219 2.95029 9.86285 2.75632 9.78764C2.49959 9.68755 2.31637 9.56881 2.1241 9.37598C1.93127 9.18372 1.81195 9.00051 1.71242 8.74379C1.63721 8.54984 1.5473 8.25862 1.52298 7.72256C1.4964 7.14239 1.49075 6.9688 1.49075 5.50028C1.49075 4.0312 1.4964 3.8576 1.52298 3.27744C1.5473 2.74138 1.63721 2.45016 1.71242 2.25621C1.81195 1.99949 1.93127 1.81628 2.1241 1.62402C2.31637 1.43176 2.49959 1.31245 2.75632 1.21236C2.95029 1.13715 3.24152 1.04781 3.77761 1.02293C4.35724 0.996916 4.53141 0.991261 6 0.991261C7.46859 0.991261 7.64276 0.996916 8.22296 1.02293C8.75905 1.04781 9.05028 1.13715 9.24424 1.21236C9.50098 1.31245 9.68363 1.43176 9.87647 1.62402C10.0687 1.81628 10.1881 1.99949 10.2876 2.25621C10.3628 2.45016 10.4527 2.74138 10.477 3.27744C10.5036 3.8576 10.5093 4.0312 10.5093 5.50028C10.5093 6.9688 10.5036 7.14239 10.477 7.72256C10.4527 8.25862 10.3628 8.54984 10.2876 8.74379C10.1881 9.00051 10.0687 9.18372 9.87647 9.37598C9.68363 9.56881 9.50098 9.68755 9.24424 9.78764C9.05028 9.86285 8.75905 9.95219 8.22296 9.97707C7.64276 10.0036 7.46859 10.0087 6 10.0087C4.53141 10.0087 4.35724 10.0036 3.77761 9.97707ZM8.27612 2.56439C8.27612 2.92855 8.5713 3.22428 8.93605 3.22428C9.30079 3.22428 9.59598 2.92855 9.59598 2.56439C9.59598 2.19966 9.30079 1.90449 8.93605 1.90449C8.5713 1.90449 8.27612 2.19966 8.27612 2.56439ZM3.17536 5.50028C3.17536 7.05984 4.44037 8.32422 6 8.32422C7.5602 8.32422 8.82465 7.05984 8.82465 5.50028C8.82465 3.94016 7.5602 2.67578 6 2.67578C4.44037 2.67578 3.17536 3.94016 3.17536 5.50028ZM4.16667 5.50028C4.16667 4.48753 4.9872 3.66704 6 3.66704C7.0128 3.66704 7.83333 4.48753 7.83333 5.50028C7.83333 6.51247 7.0128 7.33352 6 7.33352C4.9872 7.33352 4.16667 6.51247 4.16667 5.50028Z" fill="#DFAB62"/>
</svg>
