<svg width="30" height="17" viewBox="0 0 30 17" fill="none" xmlns="http://www.w3.org/2000/svg">
<path d="M16.4523 15.9995C17.2135 15.9995 17.5248 15.5355 17.516 14.9538C17.4773 12.763 18.4085 11.5836 20.0897 13.1207C21.9496 14.8213 22.3346 15.9995 24.5932 15.9995H28.593C29.603 15.9995 30.0005 15.7024 30.0005 15.2361C30.0005 14.2498 28.2243 12.5093 26.7194 11.2316C24.612 9.44304 24.5132 9.40075 26.3281 7.24764C28.5793 4.57453 31.5242 1.14943 28.9193 1.14943H23.9432C22.9783 1.14943 22.9083 1.64657 22.5645 2.38713C21.3209 5.06938 18.9572 8.54362 18.0597 8.0122C17.121 7.45792 17.551 5.26252 17.6223 1.99971C17.641 1.13801 17.636 0.547156 16.1961 0.240874C15.4098 0.0751622 14.6449 0.0065918 13.9349 0.0065918C11.0938 0.0065918 9.13386 1.09572 10.2476 1.28543C12.2112 1.62028 12.0225 5.50481 11.565 7.1825C10.7675 10.1036 7.77016 4.86938 6.52147 2.26256C6.22023 1.63628 6.12773 1.14943 5.05278 1.14943H0.984197C0.369223 1.14943 0.000488281 1.33229 0.000488281 1.73914C0.000488281 2.42713 3.70033 9.41904 7.23269 12.9047C10.6775 16.3047 14.0824 15.9995 16.4523 15.9995Z" fill="#DFAB62"/>
</svg>
