<svg width="15" height="11" viewBox="0 0 15 11" fill="none" xmlns="http://www.w3.org/2000/svg">
<path fill-rule="evenodd" clip-rule="evenodd" d="M1.53473 0.291521C2.6422 0 7.05466 0 7.05466 0C7.05466 0 11.476 0 12.5834 0.309187C13.1851 0.468179 13.6647 0.953953 13.8216 1.56346C14.1268 2.68529 14.1181 5.01735 14.1181 5.01735C14.1181 5.01735 14.1181 7.34058 13.8216 8.45361C13.6647 9.07191 13.1851 9.54889 12.5834 9.71671C11.476 10.0082 7.05466 10.0082 7.05466 10.0082C7.05466 10.0082 2.65093 10.0082 1.53473 9.70788C0.933001 9.54006 0.453481 9.05425 0.287776 8.44478C0 7.34058 0 5.00852 0 5.00852C0 5.00852 0 2.68529 0.287776 1.56346C0.453481 0.953953 0.941728 0.459346 1.53473 0.291521ZM9.32205 5.00839L5.65075 2.86191V7.14604L9.32205 5.00839Z" fill="#DFAB62"/>
</svg>
